<mxfile host="app.diagrams.net" modified="2024-02-10T05:33:16.215Z" agent="Mozilla/5.0 (Windows NT 10.0; Win64; x64) AppleWebKit/537.36 (KHTML, like Gecko) Chrome/120.0.0.0 Safari/537.36" etag="6TyI3UvdW827s_ANYYIu" version="23.1.2" type="github">
  <diagram name="第 1 页" id="RRXHzUAAJSy7LCdC74D4">
    <mxGraphModel dx="2074" dy="3478" grid="1" gridSize="10" guides="1" tooltips="1" connect="1" arrows="1" fold="1" page="1" pageScale="1" pageWidth="827" pageHeight="1169" math="0" shadow="0">
      <root>
        <mxCell id="0" />
        <mxCell id="1" parent="0" />
        <mxCell id="txJoS0bFICxF0d6WM0JP-18" value="" style="edgeStyle=orthogonalEdgeStyle;rounded=0;orthogonalLoop=1;jettySize=auto;html=1;" parent="1" source="txJoS0bFICxF0d6WM0JP-2" target="txJoS0bFICxF0d6WM0JP-17" edge="1">
          <mxGeometry relative="1" as="geometry" />
        </mxCell>
        <mxCell id="txJoS0bFICxF0d6WM0JP-2" value="Choose a difficulty level" style="rounded=1;whiteSpace=wrap;html=1;shadow=0;comic=0;labelBackgroundColor=none;strokeWidth=1;fontFamily=Verdana;fontSize=12;align=center;arcSize=50;" parent="1" vertex="1">
          <mxGeometry x="322.11" y="-1700" width="142.5" height="50" as="geometry" />
        </mxCell>
        <mxCell id="txJoS0bFICxF0d6WM0JP-3" value="" style="edgeStyle=orthogonalEdgeStyle;rounded=0;orthogonalLoop=1;jettySize=auto;html=1;entryX=0.5;entryY=0;entryDx=0;entryDy=0;" parent="1" source="txJoS0bFICxF0d6WM0JP-4" target="txJoS0bFICxF0d6WM0JP-9" edge="1">
          <mxGeometry relative="1" as="geometry">
            <mxPoint x="342.89" y="-2000" as="targetPoint" />
          </mxGeometry>
        </mxCell>
        <mxCell id="txJoS0bFICxF0d6WM0JP-4" value="" style="ellipse;whiteSpace=wrap;html=1;rounded=0;shadow=0;comic=0;labelBackgroundColor=none;strokeWidth=1;fillColor=#000000;fontFamily=Verdana;fontSize=12;align=center;" parent="1" vertex="1">
          <mxGeometry x="374" y="-2070" width="40" height="40" as="geometry" />
        </mxCell>
        <mxCell id="txJoS0bFICxF0d6WM0JP-5" value="" style="edgeStyle=orthogonalEdgeStyle;rounded=0;orthogonalLoop=1;jettySize=auto;html=1;" parent="1" source="txJoS0bFICxF0d6WM0JP-6" target="txJoS0bFICxF0d6WM0JP-7" edge="1">
          <mxGeometry relative="1" as="geometry" />
        </mxCell>
        <mxCell id="txJoS0bFICxF0d6WM0JP-6" value="Play the selected puzzle" style="rounded=1;whiteSpace=wrap;html=1;shadow=0;comic=0;labelBackgroundColor=none;strokeWidth=1;fontFamily=Verdana;fontSize=12;align=center;arcSize=50;" parent="1" vertex="1">
          <mxGeometry x="335.13" y="-1540" width="117.75" height="43" as="geometry" />
        </mxCell>
        <mxCell id="txJoS0bFICxF0d6WM0JP-7" value="" style="shape=mxgraph.bpmn.shape;html=1;verticalLabelPosition=bottom;labelBackgroundColor=#ffffff;verticalAlign=top;perimeter=ellipsePerimeter;outline=end;symbol=terminate;rounded=0;shadow=0;comic=0;strokeWidth=1;fontFamily=Verdana;fontSize=12;align=center;" parent="1" vertex="1">
          <mxGeometry x="373.36" y="-1470" width="40" height="40" as="geometry" />
        </mxCell>
        <mxCell id="k54v_lkFRNFaW8UBd_Ln-2" value="" style="edgeStyle=orthogonalEdgeStyle;rounded=0;orthogonalLoop=1;jettySize=auto;html=1;" edge="1" parent="1" source="txJoS0bFICxF0d6WM0JP-9" target="k54v_lkFRNFaW8UBd_Ln-1">
          <mxGeometry relative="1" as="geometry" />
        </mxCell>
        <mxCell id="txJoS0bFICxF0d6WM0JP-9" value="Implicitly enter the hardcode password for debug mode on main menu" style="rounded=1;whiteSpace=wrap;html=1;shadow=0;comic=0;labelBackgroundColor=none;strokeWidth=1;fontFamily=Verdana;fontSize=12;align=center;arcSize=50;" parent="1" vertex="1">
          <mxGeometry x="286.39" y="-2000" width="215.25" height="80" as="geometry" />
        </mxCell>
        <mxCell id="txJoS0bFICxF0d6WM0JP-10" value="" style="edgeStyle=orthogonalEdgeStyle;rounded=0;orthogonalLoop=1;jettySize=auto;html=1;entryX=1;entryY=0.5;entryDx=0;entryDy=0;" parent="1" source="txJoS0bFICxF0d6WM0JP-14" target="txJoS0bFICxF0d6WM0JP-9" edge="1">
          <mxGeometry relative="1" as="geometry">
            <mxPoint x="513.5" y="-1780" as="targetPoint" />
            <Array as="points">
              <mxPoint x="550" y="-1780" />
              <mxPoint x="550" y="-1960" />
            </Array>
          </mxGeometry>
        </mxCell>
        <mxCell id="txJoS0bFICxF0d6WM0JP-11" value="Incorrect password" style="edgeLabel;html=1;align=center;verticalAlign=middle;resizable=0;points=[];" parent="txJoS0bFICxF0d6WM0JP-10" vertex="1" connectable="0">
          <mxGeometry x="0.2139" y="3" relative="1" as="geometry">
            <mxPoint x="-57" y="83" as="offset" />
          </mxGeometry>
        </mxCell>
        <mxCell id="txJoS0bFICxF0d6WM0JP-12" value="" style="edgeStyle=orthogonalEdgeStyle;rounded=0;orthogonalLoop=1;jettySize=auto;html=1;" parent="1" source="txJoS0bFICxF0d6WM0JP-14" target="txJoS0bFICxF0d6WM0JP-2" edge="1">
          <mxGeometry relative="1" as="geometry" />
        </mxCell>
        <mxCell id="txJoS0bFICxF0d6WM0JP-13" value="Correct password" style="edgeLabel;html=1;align=center;verticalAlign=middle;resizable=0;points=[];" parent="txJoS0bFICxF0d6WM0JP-12" vertex="1" connectable="0">
          <mxGeometry x="-0.4514" y="-1" relative="1" as="geometry">
            <mxPoint x="48" y="9" as="offset" />
          </mxGeometry>
        </mxCell>
        <mxCell id="txJoS0bFICxF0d6WM0JP-14" value="" style="rhombus;whiteSpace=wrap;html=1;" parent="1" vertex="1">
          <mxGeometry x="353.5" y="-1820" width="80" height="80" as="geometry" />
        </mxCell>
        <mxCell id="txJoS0bFICxF0d6WM0JP-15" value="" style="edgeStyle=orthogonalEdgeStyle;rounded=0;orthogonalLoop=1;jettySize=auto;html=1;" parent="1" source="txJoS0bFICxF0d6WM0JP-17" target="txJoS0bFICxF0d6WM0JP-6" edge="1">
          <mxGeometry relative="1" as="geometry" />
        </mxCell>
        <mxCell id="txJoS0bFICxF0d6WM0JP-17" value="Choose a puzzle within this difficulity level" style="rounded=1;whiteSpace=wrap;html=1;shadow=0;comic=0;labelBackgroundColor=none;strokeWidth=1;fontFamily=Verdana;fontSize=12;align=center;arcSize=50;" parent="1" vertex="1">
          <mxGeometry x="322.76" y="-1620" width="142.5" height="50" as="geometry" />
        </mxCell>
        <mxCell id="k54v_lkFRNFaW8UBd_Ln-3" value="" style="edgeStyle=orthogonalEdgeStyle;rounded=0;orthogonalLoop=1;jettySize=auto;html=1;" edge="1" parent="1" source="k54v_lkFRNFaW8UBd_Ln-1" target="txJoS0bFICxF0d6WM0JP-14">
          <mxGeometry relative="1" as="geometry" />
        </mxCell>
        <mxCell id="k54v_lkFRNFaW8UBd_Ln-1" value="Validate the password" style="rounded=1;whiteSpace=wrap;html=1;shadow=0;comic=0;labelBackgroundColor=none;strokeWidth=1;fontFamily=Verdana;fontSize=12;align=center;arcSize=50;" vertex="1" parent="1">
          <mxGeometry x="322.77" y="-1900" width="142.5" height="50" as="geometry" />
        </mxCell>
      </root>
    </mxGraphModel>
  </diagram>
</mxfile>
